<svg xmlns="http://www.w3.org/2000/svg" viewBox="0 0 1000 1000" xml:space="preserve"><path d="M500 10A490.5 490.5 0 0 0 10 500c0 270.2 219.8 490 490 490a486 486 0 0 0 277.5-86.1v.2l7.8-5.7 4.5-.7.4-3c5-3.7 10-7.4 14.9-11.3 1.2-1 2.4-2.1 3.4-3.2a520 520 0 0 0 107.7-121.5A488.7 488.7 0 0 0 990 499.9 490.5 490.5 0 0 0 500 10zm365 716.8-.5.9A433.3 433.3 0 0 1 821 786c-21.7 24.2-53.2 50.1-53.4 50.3a425 425 0 0 1-267.5 93.4A430.3 430.3 0 0 1 70.3 500 430.2 430.2 0 0 1 500 70.3 430.2 430.2 0 0 1 929.7 500c0 80.5-22.4 158.9-64.7 226.8z"/><path d="M360.9 262.8c-3.6 0-7.2.6-10.7 1.9l-144 52.4a31.2 31.2 0 0 0 10.7 60.4c3.6 0 7.2-.6 10.7-1.9l144-52.4a31 31 0 0 0 18.6-39.9 31.1 31.1 0 0 0-29.3-20.5zM294.8 383.4a65.4 65.4 0 1 0 .2 130.8 65.4 65.4 0 0 0-.2-130.8zM796 317.1l-144-52.4a31.3 31.3 0 0 0-39.9 18.6 31.1 31.1 0 0 0 18.6 39.9l144 52.4a31.3 31.3 0 0 0 39-42.4 31.8 31.8 0 0 0-17.7-16.1zM707.5 383.4a65.4 65.4 0 1 0 .2 130.8 65.4 65.4 0 0 0-.2-130.8zM650 631.1c-7.4 0-14.6 2.7-19.8 7.1L525 713a31.2 31.2 0 0 0 20.3 54.7c7.4 0 14.7-2.7 19.8-7.2l105.2-74.7a31.2 31.2 0 0 0-20.3-54.7z"/></svg>